<?xml version="1.0" encoding="UTF-8"?>
<svg width="128px" height="128px" viewBox="0 0 128 128" version="1.1" xmlns="http://www.w3.org/2000/svg">
    <title>智能点名系统</title>
    <g stroke="none" stroke-width="1" fill="none" fill-rule="evenodd">
        <circle fill="#722ED1" cx="64" cy="64" r="64"/>
        <path d="M38,38 L90,38 C93.3137085,38 96,40.6862915 96,44 L96,84 C96,87.3137085 93.3137085,90 90,90 L38,90 C34.6862915,90 32,87.3137085 32,84 L32,44 C32,40.6862915 34.6862915,38 38,38 Z M42,46 L42,82 L86,82 L86,46 L42,46 Z" fill="#FFFFFF" fill-rule="nonzero"/>
        <rect fill="#FFFFFF" x="48" y="52" width="32" height="4" rx="2"/>
        <rect fill="#FFFFFF" x="48" y="62" width="32" height="4" rx="2"/>
        <rect fill="#FFFFFF" x="48" y="72" width="32" height="4" rx="2"/>
    </g>
</svg>